<svg xmlns="http://www.w3.org/2000/svg" viewBox="0 0 64 64" role="img" aria-label="CCCWA logo">
  <defs>
    <linearGradient id="g" x1="0" y1="0" x2="1" y2="1">
      <stop offset="0" stop-color="#C8102E"/>
      <stop offset="1" stop-color="#9B0C23"/>
    </linearGradient>
  </defs>
  <rect x="2" y="2" width="60" height="60" rx="14" fill="url(#g)"/>
  <path d="M20 22c-3.2 0-5.6 2.6-5.6 6.2 0 3.6 2.4 6.2 5.7 6.2 1.9 0 3.4-.7 4.5-1.9l-1.9-1.9c-.7.7-1.5 1.1-2.5 1.1-1.7 0-2.9-1.4-2.9-3.5s1.2-3.5 2.9-3.5c.9 0 1.7.4 2.4 1.1l1.9-1.9c-1.1-1.3-2.6-2-4.5-2z" fill="#fff"/>
  <path d="M33.2 22c-3.2 0-5.6 2.6-5.6 6.2 0 3.6 2.4 6.2 5.7 6.2 1.9 0 3.4-.7 4.5-1.9l-1.9-1.9c-.7.7-1.5 1.1-2.5 1.1-1.7 0-2.9-1.4-2.9-3.5s1.2-3.5 2.9-3.5c.9 0 1.7.4 2.4 1.1l1.9-1.9c-1.1-1.3-2.6-2-4.5-2z" fill="#fff"/>
  <path d="M40 22.3l2.9 11.8h3l1.8-7.3 1.8 7.3h3L58.4 22.3h-3l-1.6 7.6-1.8-7.6h-2.6l-1.8 7.6-1.6-7.6z" fill="#F4C84A" transform="translate(-6 0)"/>
  <rect x="14" y="40" width="36" height="2.4" rx="1.2" fill="#F4C84A"/>
</svg>
